<?xml version="1.0" encoding="utf-8"?>
<!-- Generator: Adobe Illustrator 25.1.0, SVG Export Plug-In . SVG Version: 6.00 Build 0)  -->
<svg version="1.1" id="Layer_1" xmlns="http://www.w3.org/2000/svg" xmlns:xlink="http://www.w3.org/1999/xlink" x="0px" y="0px"
	 viewBox="0 0 2500 2500" style="enable-background:new 0 0 2500 2500;" xml:space="preserve">
<style type="text/css">
	.st0{fill:none;}
	.st1{fill:#FFFFFF;}
</style>
<path class="st0" d="M0,204h2500v1726.8H0V204z"/>
<path class="st1" d="M2320.2,625C2249.5,503.2,1380.9,0,1239.4,0S229.1,501.9,158.8,625s-70.7,1127,0,1250.1
	c70.7,123,939.3,624.9,1080.6,624.9s1010-502.6,1080.8-625C2390.8,1752.6,2390.9,746.9,2320.2,625L2320.2,625z M1532.2,2022.6
	c-19.4,0-199.8-174.6-185.6-188.9c4.3-4.3,30.6-7.2,85.7-9c0-128,2.9-334.9,4.6-421.5c0.3-9.9-2.2-16.7-2.2-28.6h-390.1
	c0,34.7-2.3,176.8,6.7,355.9c1.1,22.1-7.7,29.1-28.1,29c-49.5-0.1-98.9-0.5-148.5-0.4c-20,0-28.7-7.5-28.1-29.9
	C851,1566,861,1319,845.8,691v-15.4c-47.2-1.6-80-4.7-84.3-9c-14.2-14.3,168.8-189,188-189c19.4,0,201,174.7,186.9,188.9
	c-4.3,4.3-38.6,7.2-81.9,9v15.4c-11.8,125.8-9.9,388.7-12.8,514.6h391.8c0-22.3,1.9-169.7-5.8-408.4c-0.5-16.6,4.7-25.3,20.5-25.4
	c54-0.4,108.2-0.6,162.2-0.3c17,0.1,22.3,8.4,22,26.3c-17.8,934-3.3,868.8-3.3,1027c43.3,1.8,82.1,4.7,86.4,9
	C1729.8,1847.9,1551.6,2022.6,1532.2,2022.6L1532.2,2022.6z"/>
</svg>
