<svg width="156" height="52" viewBox="0 0 156 52" fill="none" xmlns="http://www.w3.org/2000/svg">
<path d="M66.7447 32.7936H75.5799C75.5799 35.669 73.2489 38 70.3735 38H60V17.0559C60 13.3309 63.0197 10.3112 66.7447 10.3112V32.7936Z" fill="black"/>
<path d="M87.839 38.3155C85.6828 38.3155 83.7369 37.8554 82.0014 36.935C80.2923 36.0147 78.9381 34.7 77.9388 32.9908C76.9659 31.2816 76.4795 29.2831 76.4795 26.9955C76.4795 24.7341 76.9791 22.7488 77.9783 21.0396C78.9775 19.3041 80.3448 17.9762 82.0803 17.0559C83.8158 16.1355 85.7617 15.6754 87.9179 15.6754C90.0741 15.6754 92.0199 16.1355 93.7554 17.0559C95.4909 17.9762 96.8582 19.3041 97.8574 21.0396C98.8567 22.7488 99.3563 24.7341 99.3563 26.9955C99.3563 29.2568 98.8435 31.2553 97.818 32.9908C96.8188 34.7 95.4383 36.0147 93.6765 36.935C91.941 37.8554 89.9952 38.3155 87.839 38.3155ZM87.839 32.478C89.1274 32.478 90.2187 32.0047 91.1127 31.0581C92.0331 30.1114 92.4932 28.7572 92.4932 26.9955C92.4932 25.2337 92.0462 23.8795 91.1522 22.9329C90.2844 21.9862 89.2063 21.5129 87.9179 21.5129C86.6031 21.5129 85.5119 21.9862 84.6441 22.9329C83.7764 23.8532 83.3425 25.2074 83.3425 26.9955C83.3425 28.7572 83.7632 30.1114 84.6047 31.0581C85.4724 32.0047 86.5505 32.478 87.839 32.478Z" fill="black"/>
<path d="M111.201 15.6754C112.753 15.6754 114.107 15.9909 115.264 16.622C116.447 17.2531 117.354 18.0814 117.985 19.1069C117.985 17.386 119.38 15.9909 121.101 15.9909H124.73V37.9606C124.73 39.9853 124.322 41.8128 123.507 43.4431C122.718 45.0997 121.496 46.4145 119.839 47.3874C118.209 48.3603 116.171 48.8468 113.726 48.8468C110.465 48.8468 107.822 48.0711 105.798 46.5196C103.773 44.9945 102.616 42.9172 102.327 40.2877H108.992C109.203 41.1291 109.702 41.7865 110.491 42.2598C111.28 42.7594 112.253 43.0092 113.41 43.0092C114.804 43.0092 115.908 42.6017 116.723 41.7865C117.565 40.9977 117.985 39.7223 117.985 37.9606V34.8446C117.328 35.8701 116.421 36.7115 115.264 37.3689C114.107 38 112.753 38.3155 111.201 38.3155C109.387 38.3155 107.743 37.8554 106.271 36.935C104.798 35.9884 103.628 34.6605 102.76 32.9513C101.919 31.2158 101.498 29.2174 101.498 26.956C101.498 24.6946 101.919 22.7093 102.76 21.0002C103.628 19.291 104.798 17.9762 106.271 17.0559C107.743 16.1355 109.387 15.6754 111.201 15.6754ZM117.985 26.9955C117.985 25.3126 117.512 23.9847 116.565 23.0117C115.645 22.0388 114.514 21.5524 113.173 21.5524C111.832 21.5524 110.688 22.0388 109.742 23.0117C108.821 23.9584 108.361 25.2731 108.361 26.956C108.361 28.6389 108.821 29.98 109.742 30.9792C110.688 31.9521 111.832 32.4386 113.173 32.4386C114.514 32.4386 115.645 31.9521 116.565 30.9792C117.512 30.0063 117.985 28.6784 117.985 26.9955Z" fill="black"/>
<path d="M138.358 38.3155C136.202 38.3155 134.256 37.8554 132.52 36.935C130.811 36.0147 129.457 34.7 128.458 32.9908C127.485 31.2816 126.998 29.2831 126.998 26.9955C126.998 24.7341 127.498 22.7488 128.497 21.0396C129.496 19.3041 130.864 17.9762 132.599 17.0559C134.335 16.1355 136.281 15.6754 138.437 15.6754C140.593 15.6754 142.539 16.1355 144.274 17.0559C146.01 17.9762 147.377 19.3041 148.376 21.0396C149.376 22.7488 149.875 24.7341 149.875 26.9955C149.875 29.2568 149.362 31.2553 148.337 32.9908C147.338 34.7 145.957 36.0147 144.195 36.935C142.46 37.8554 140.514 38.3155 138.358 38.3155ZM138.358 32.478C139.646 32.478 140.738 32.0047 141.632 31.0581C142.552 30.1114 143.012 28.7572 143.012 26.9955C143.012 25.2337 142.565 23.8795 141.671 22.9329C140.803 21.9862 139.725 21.5129 138.437 21.5129C137.122 21.5129 136.031 21.9862 135.163 22.9329C134.295 23.8532 133.861 25.2074 133.861 26.9955C133.861 28.7572 134.282 30.1114 135.124 31.0581C135.991 32.0047 137.069 32.478 138.358 32.478Z" fill="black"/>
<circle cx="38" cy="14" r="10" fill="#7CDD00"/>
<circle cx="38" cy="38" r="10" fill="#0071D9"/>
<path d="M5 21C5 11.6112 12.6112 4 22 4V31C22 40.3888 14.3888 48 5 48V21Z" fill="#C80000"/>
</svg>
